<?xml version="1.0" encoding="UTF-8"?>
<svg xmlns="http://www.w3.org/2000/svg" xmlns:xlink="http://www.w3.org/1999/xlink" width="360" height="360" viewBox="0 0 360 360">
<defs>
<g>
<g id="glyph-0-0">
<path d="M 6.171875 3.984375 L 1.40625 3.984375 L 1.40625 -11.9375 L 6.171875 -11.9375 Z M 2.03125 -11.359375 L 2.03125 3.390625 L 5.5625 3.390625 L 5.5625 -11.359375 Z M 3.6875 -5.125 C 4.144531 -5.125 4.46875 -5.003906 4.65625 -4.765625 C 4.851562 -4.523438 4.953125 -4.210938 4.953125 -3.828125 C 4.953125 -3.421875 4.863281 -3.109375 4.6875 -2.890625 C 4.519531 -2.671875 4.25 -2.535156 3.875 -2.484375 L 3.875 -1.96875 C 3.875 -1.882812 3.84375 -1.816406 3.78125 -1.765625 C 3.726562 -1.710938 3.660156 -1.6875 3.578125 -1.6875 C 3.503906 -1.6875 3.4375 -1.710938 3.375 -1.765625 C 3.320312 -1.816406 3.296875 -1.882812 3.296875 -1.96875 L 3.296875 -2.921875 C 3.703125 -2.941406 3.972656 -3.015625 4.109375 -3.140625 C 4.253906 -3.265625 4.328125 -3.484375 4.328125 -3.796875 C 4.328125 -4.046875 4.273438 -4.238281 4.171875 -4.375 C 4.078125 -4.507812 3.898438 -4.578125 3.640625 -4.578125 C 3.421875 -4.578125 3.222656 -4.535156 3.046875 -4.453125 C 2.984375 -4.429688 2.9375 -4.421875 2.90625 -4.421875 C 2.820312 -4.421875 2.753906 -4.445312 2.703125 -4.5 C 2.648438 -4.550781 2.625 -4.613281 2.625 -4.6875 C 2.625 -4.832031 2.734375 -4.941406 2.953125 -5.015625 C 3.179688 -5.085938 3.425781 -5.125 3.6875 -5.125 Z M 3.578125 -1.359375 C 3.691406 -1.359375 3.785156 -1.320312 3.859375 -1.25 C 3.941406 -1.175781 3.984375 -1.082031 3.984375 -0.96875 C 3.984375 -0.84375 3.941406 -0.738281 3.859375 -0.65625 C 3.785156 -0.582031 3.691406 -0.546875 3.578125 -0.546875 C 3.460938 -0.546875 3.367188 -0.582031 3.296875 -0.65625 C 3.222656 -0.738281 3.1875 -0.84375 3.1875 -0.96875 C 3.1875 -1.082031 3.222656 -1.175781 3.296875 -1.25 C 3.367188 -1.320312 3.460938 -1.359375 3.578125 -1.359375 Z M 3.578125 -1.359375 "/>
</g>
<g id="glyph-0-1">
<path d="M 2.609375 0 L 0.734375 0 L 0.734375 -7.890625 L 2.609375 -7.890625 Z M 2.609375 0 "/>
</g>
<g id="glyph-0-2">
<path d="M 4.25 -6.234375 C 4.769531 -6.234375 5.175781 -6.070312 5.46875 -5.75 C 5.769531 -5.4375 5.921875 -4.988281 5.921875 -4.40625 L 5.921875 0 L 4.125 0 L 4.125 -4.109375 C 4.125 -4.410156 4.070312 -4.617188 3.96875 -4.734375 C 3.875 -4.847656 3.734375 -4.90625 3.546875 -4.90625 C 3.179688 -4.90625 2.832031 -4.644531 2.5 -4.125 L 2.5 0 L 0.703125 0 L 0.703125 -6.046875 L 2.28125 -6.046875 L 2.40625 -5.328125 C 2.664062 -5.628906 2.945312 -5.851562 3.25 -6 C 3.550781 -6.15625 3.882812 -6.234375 4.25 -6.234375 Z M 4.25 -6.234375 "/>
</g>
<g id="glyph-0-3">
<path d="M 3.328125 -6.234375 C 3.742188 -6.234375 4.117188 -6.171875 4.453125 -6.046875 C 4.785156 -5.929688 5.097656 -5.75 5.390625 -5.5 L 4.625 -4.421875 C 4.238281 -4.710938 3.851562 -4.859375 3.46875 -4.859375 C 3.0625 -4.859375 2.753906 -4.707031 2.546875 -4.40625 C 2.347656 -4.113281 2.25 -3.640625 2.25 -2.984375 C 2.25 -2.347656 2.347656 -1.894531 2.546875 -1.625 C 2.753906 -1.363281 3.054688 -1.234375 3.453125 -1.234375 C 3.648438 -1.234375 3.832031 -1.265625 4 -1.328125 C 4.164062 -1.390625 4.367188 -1.492188 4.609375 -1.640625 L 5.390625 -0.515625 C 4.796875 -0.046875 4.117188 0.1875 3.359375 0.1875 C 2.742188 0.1875 2.210938 0.0546875 1.765625 -0.203125 C 1.316406 -0.460938 0.96875 -0.828125 0.71875 -1.296875 C 0.476562 -1.773438 0.359375 -2.332031 0.359375 -2.96875 C 0.359375 -3.601562 0.476562 -4.164062 0.71875 -4.65625 C 0.96875 -5.15625 1.316406 -5.539062 1.765625 -5.8125 C 2.210938 -6.09375 2.734375 -6.234375 3.328125 -6.234375 Z M 3.328125 -6.234375 "/>
</g>
<g id="glyph-0-4">
<path d="M 3.984375 -6.203125 C 4.203125 -6.203125 4.398438 -6.175781 4.578125 -6.125 L 4.296875 -4.390625 C 4.066406 -4.441406 3.882812 -4.46875 3.75 -4.46875 C 3.40625 -4.46875 3.132812 -4.347656 2.9375 -4.109375 C 2.75 -3.867188 2.601562 -3.503906 2.5 -3.015625 L 2.5 0 L 0.703125 0 L 0.703125 -6.046875 L 2.28125 -6.046875 L 2.421875 -4.875 C 2.554688 -5.289062 2.757812 -5.613281 3.03125 -5.84375 C 3.3125 -6.082031 3.628906 -6.203125 3.984375 -6.203125 Z M 3.984375 -6.203125 "/>
</g>
<g id="glyph-0-5">
<path d="M 5.96875 -3.140625 C 5.96875 -2.890625 5.957031 -2.671875 5.9375 -2.484375 L 2.203125 -2.484375 C 2.253906 -1.984375 2.394531 -1.628906 2.625 -1.421875 C 2.851562 -1.210938 3.171875 -1.109375 3.578125 -1.109375 C 3.816406 -1.109375 4.050781 -1.148438 4.28125 -1.234375 C 4.507812 -1.328125 4.753906 -1.46875 5.015625 -1.65625 L 5.75 -0.640625 C 5.050781 -0.0859375 4.269531 0.1875 3.40625 0.1875 C 2.425781 0.1875 1.671875 -0.0976562 1.140625 -0.671875 C 0.617188 -1.242188 0.359375 -2.015625 0.359375 -2.984375 C 0.359375 -3.597656 0.46875 -4.148438 0.6875 -4.640625 C 0.914062 -5.128906 1.238281 -5.515625 1.65625 -5.796875 C 2.082031 -6.085938 2.59375 -6.234375 3.1875 -6.234375 C 4.0625 -6.234375 4.742188 -5.957031 5.234375 -5.40625 C 5.722656 -4.863281 5.96875 -4.109375 5.96875 -3.140625 Z M 4.203125 -3.65625 C 4.191406 -4.582031 3.867188 -5.046875 3.234375 -5.046875 C 2.921875 -5.046875 2.679688 -4.929688 2.515625 -4.703125 C 2.347656 -4.484375 2.242188 -4.109375 2.203125 -3.578125 L 4.203125 -3.578125 Z M 4.203125 -3.65625 "/>
</g>
<g id="glyph-0-6">
<path d="M 7.375 -6.234375 C 7.851562 -6.234375 8.238281 -6.070312 8.53125 -5.75 C 8.820312 -5.425781 8.96875 -4.976562 8.96875 -4.40625 L 8.96875 0 L 7.171875 0 L 7.171875 -4.109375 C 7.171875 -4.640625 7 -4.90625 6.65625 -4.90625 C 6.46875 -4.90625 6.300781 -4.84375 6.15625 -4.71875 C 6.007812 -4.59375 5.867188 -4.394531 5.734375 -4.125 L 5.734375 0 L 3.9375 0 L 3.9375 -4.109375 C 3.9375 -4.640625 3.765625 -4.90625 3.421875 -4.90625 C 3.242188 -4.90625 3.078125 -4.835938 2.921875 -4.703125 C 2.773438 -4.578125 2.632812 -4.382812 2.5 -4.125 L 2.5 0 L 0.703125 0 L 0.703125 -6.046875 L 2.28125 -6.046875 L 2.40625 -5.328125 C 2.632812 -5.640625 2.890625 -5.867188 3.171875 -6.015625 C 3.460938 -6.160156 3.789062 -6.234375 4.15625 -6.234375 C 4.488281 -6.234375 4.773438 -6.148438 5.015625 -5.984375 C 5.265625 -5.816406 5.453125 -5.582031 5.578125 -5.28125 C 5.816406 -5.59375 6.082031 -5.828125 6.375 -5.984375 C 6.664062 -6.148438 7 -6.234375 7.375 -6.234375 Z M 7.375 -6.234375 "/>
</g>
<g id="glyph-0-7">
<path d="M 4.5 -0.28125 C 4.269531 -0.132812 4.007812 -0.0195312 3.71875 0.0625 C 3.425781 0.144531 3.140625 0.1875 2.859375 0.1875 C 1.535156 0.1875 0.875 -0.535156 0.875 -1.984375 L 0.875 -4.78125 L 0.015625 -4.78125 L 0.015625 -6.046875 L 0.875 -6.046875 L 0.875 -7.34375 L 2.671875 -7.546875 L 2.671875 -6.046875 L 4.0625 -6.046875 L 3.875 -4.78125 L 2.671875 -4.78125 L 2.671875 -2.015625 C 2.671875 -1.734375 2.71875 -1.53125 2.8125 -1.40625 C 2.90625 -1.289062 3.046875 -1.234375 3.234375 -1.234375 C 3.453125 -1.234375 3.671875 -1.300781 3.890625 -1.4375 Z M 4.5 -0.28125 "/>
</g>
<g id="glyph-0-8">
<path d="M 3.328125 -6.234375 C 4.242188 -6.234375 4.960938 -5.945312 5.484375 -5.375 C 6.015625 -4.8125 6.28125 -4.023438 6.28125 -3.015625 C 6.28125 -2.367188 6.160156 -1.804688 5.921875 -1.328125 C 5.679688 -0.847656 5.335938 -0.472656 4.890625 -0.203125 C 4.453125 0.0546875 3.929688 0.1875 3.328125 0.1875 C 2.398438 0.1875 1.671875 -0.09375 1.140625 -0.65625 C 0.617188 -1.21875 0.359375 -2.007812 0.359375 -3.03125 C 0.359375 -3.675781 0.476562 -4.238281 0.71875 -4.71875 C 0.957031 -5.195312 1.296875 -5.566406 1.734375 -5.828125 C 2.179688 -6.097656 2.710938 -6.234375 3.328125 -6.234375 Z M 3.328125 -4.90625 C 2.960938 -4.90625 2.6875 -4.753906 2.5 -4.453125 C 2.320312 -4.148438 2.234375 -3.675781 2.234375 -3.03125 C 2.234375 -2.363281 2.320312 -1.878906 2.5 -1.578125 C 2.675781 -1.273438 2.953125 -1.125 3.328125 -1.125 C 3.691406 -1.125 3.960938 -1.273438 4.140625 -1.578125 C 4.316406 -1.890625 4.40625 -2.367188 4.40625 -3.015625 C 4.40625 -3.671875 4.316406 -4.148438 4.140625 -4.453125 C 3.960938 -4.753906 3.691406 -4.90625 3.328125 -4.90625 Z M 3.328125 -4.90625 "/>
</g>
<g id="glyph-0-9">
<path d="M 2.828125 -6.234375 C 3.265625 -6.234375 3.671875 -6.164062 4.046875 -6.03125 C 4.429688 -5.90625 4.765625 -5.726562 5.046875 -5.5 L 4.390625 -4.484375 C 3.898438 -4.796875 3.40625 -4.953125 2.90625 -4.953125 C 2.664062 -4.953125 2.484375 -4.910156 2.359375 -4.828125 C 2.234375 -4.742188 2.171875 -4.632812 2.171875 -4.5 C 2.171875 -4.382812 2.195312 -4.289062 2.25 -4.21875 C 2.3125 -4.144531 2.425781 -4.066406 2.59375 -3.984375 C 2.769531 -3.910156 3.039062 -3.820312 3.40625 -3.71875 C 4.039062 -3.539062 4.507812 -3.304688 4.8125 -3.015625 C 5.125 -2.722656 5.28125 -2.316406 5.28125 -1.796875 C 5.28125 -1.390625 5.160156 -1.035156 4.921875 -0.734375 C 4.691406 -0.429688 4.367188 -0.203125 3.953125 -0.046875 C 3.546875 0.105469 3.09375 0.1875 2.59375 0.1875 C 2.082031 0.1875 1.609375 0.105469 1.171875 -0.046875 C 0.734375 -0.203125 0.363281 -0.421875 0.0625 -0.703125 L 0.9375 -1.6875 C 1.445312 -1.289062 1.984375 -1.09375 2.546875 -1.09375 C 2.816406 -1.09375 3.03125 -1.140625 3.1875 -1.234375 C 3.34375 -1.335938 3.421875 -1.476562 3.421875 -1.65625 C 3.421875 -1.800781 3.390625 -1.914062 3.328125 -2 C 3.265625 -2.082031 3.144531 -2.160156 2.96875 -2.234375 C 2.800781 -2.304688 2.53125 -2.394531 2.15625 -2.5 C 1.550781 -2.675781 1.097656 -2.921875 0.796875 -3.234375 C 0.503906 -3.546875 0.359375 -3.929688 0.359375 -4.390625 C 0.359375 -4.734375 0.457031 -5.046875 0.65625 -5.328125 C 0.863281 -5.609375 1.15625 -5.828125 1.53125 -5.984375 C 1.90625 -6.148438 2.335938 -6.234375 2.828125 -6.234375 Z M 2.828125 -6.234375 "/>
</g>
<g id="glyph-0-10">
</g>
<g id="glyph-0-11">
<path d="M 5.5 -1.75 C 5.5 -1.519531 5.53125 -1.351562 5.59375 -1.25 C 5.664062 -1.144531 5.773438 -1.066406 5.921875 -1.015625 L 5.546875 0.15625 C 5.171875 0.125 4.863281 0.0429688 4.625 -0.078125 C 4.394531 -0.203125 4.210938 -0.410156 4.078125 -0.703125 C 3.679688 -0.109375 3.078125 0.1875 2.265625 0.1875 C 1.660156 0.1875 1.179688 0.0117188 0.828125 -0.328125 C 0.472656 -0.679688 0.296875 -1.132812 0.296875 -1.6875 C 0.296875 -2.351562 0.535156 -2.859375 1.015625 -3.203125 C 1.503906 -3.554688 2.207031 -3.734375 3.125 -3.734375 L 3.75 -3.734375 L 3.75 -4 C 3.75 -4.351562 3.671875 -4.59375 3.515625 -4.71875 C 3.359375 -4.851562 3.09375 -4.921875 2.71875 -4.921875 C 2.519531 -4.921875 2.28125 -4.890625 2 -4.828125 C 1.71875 -4.773438 1.429688 -4.703125 1.140625 -4.609375 L 0.734375 -5.796875 C 1.109375 -5.929688 1.492188 -6.035156 1.890625 -6.109375 C 2.285156 -6.191406 2.65625 -6.234375 3 -6.234375 C 3.863281 -6.234375 4.492188 -6.054688 4.890625 -5.703125 C 5.296875 -5.347656 5.5 -4.8125 5.5 -4.09375 Z M 2.78125 -1.09375 C 2.976562 -1.09375 3.160156 -1.140625 3.328125 -1.234375 C 3.492188 -1.335938 3.632812 -1.476562 3.75 -1.65625 L 3.75 -2.734375 L 3.296875 -2.734375 C 2.890625 -2.734375 2.582031 -2.660156 2.375 -2.515625 C 2.175781 -2.378906 2.078125 -2.160156 2.078125 -1.859375 C 2.078125 -1.609375 2.140625 -1.414062 2.265625 -1.28125 C 2.390625 -1.15625 2.5625 -1.09375 2.78125 -1.09375 Z M 2.78125 -1.09375 "/>
</g>
<g id="glyph-0-12">
<path d="M 2.5 0 L 0.703125 0 L 0.703125 -6.046875 L 2.5 -6.046875 Z M 1.59375 -9.21875 C 1.90625 -9.21875 2.160156 -9.117188 2.359375 -8.921875 C 2.554688 -8.734375 2.65625 -8.492188 2.65625 -8.203125 C 2.65625 -7.898438 2.554688 -7.648438 2.359375 -7.453125 C 2.160156 -7.265625 1.90625 -7.171875 1.59375 -7.171875 C 1.28125 -7.171875 1.023438 -7.265625 0.828125 -7.453125 C 0.628906 -7.648438 0.53125 -7.898438 0.53125 -8.203125 C 0.53125 -8.492188 0.628906 -8.734375 0.828125 -8.921875 C 1.023438 -9.117188 1.28125 -9.21875 1.59375 -9.21875 Z M 1.59375 -9.21875 "/>
</g>
<g id="glyph-0-13">
<path d="M 6.125 -8.4375 L 6.125 0 L 4.53125 0 L 4.4375 -0.703125 C 4.25 -0.429688 4.007812 -0.210938 3.71875 -0.046875 C 3.4375 0.105469 3.101562 0.1875 2.71875 0.1875 C 1.96875 0.1875 1.394531 -0.0976562 1 -0.671875 C 0.613281 -1.242188 0.421875 -2.03125 0.421875 -3.03125 C 0.421875 -3.65625 0.519531 -4.207031 0.71875 -4.6875 C 0.925781 -5.175781 1.21875 -5.554688 1.59375 -5.828125 C 1.96875 -6.097656 2.410156 -6.234375 2.921875 -6.234375 C 3.191406 -6.234375 3.441406 -6.179688 3.671875 -6.078125 C 3.910156 -5.984375 4.128906 -5.847656 4.328125 -5.671875 L 4.328125 -8.640625 Z M 3.28125 -1.125 C 3.6875 -1.125 4.035156 -1.347656 4.328125 -1.796875 L 4.328125 -4.40625 C 4.179688 -4.570312 4.03125 -4.695312 3.875 -4.78125 C 3.726562 -4.875 3.566406 -4.921875 3.390625 -4.921875 C 3.046875 -4.921875 2.773438 -4.765625 2.578125 -4.453125 C 2.378906 -4.148438 2.28125 -3.675781 2.28125 -3.03125 C 2.28125 -2.320312 2.363281 -1.828125 2.53125 -1.546875 C 2.707031 -1.265625 2.957031 -1.125 3.28125 -1.125 Z M 3.28125 -1.125 "/>
</g>
<g id="glyph-0-14">
<path d="M 2.9375 -7.890625 C 4.164062 -7.890625 5.15625 -7.609375 5.90625 -7.046875 C 6.65625 -6.484375 7.03125 -5.460938 7.03125 -3.984375 C 7.03125 -2.515625 6.664062 -1.484375 5.9375 -0.890625 C 5.207031 -0.296875 4.265625 0 3.109375 0 L 0.734375 0 L 0.734375 -7.890625 Z M 2.609375 -6.53125 L 2.609375 -1.359375 L 3.21875 -1.359375 C 3.832031 -1.359375 4.296875 -1.546875 4.609375 -1.921875 C 4.929688 -2.304688 5.09375 -2.992188 5.09375 -3.984375 C 5.09375 -4.660156 5.015625 -5.179688 4.859375 -5.546875 C 4.703125 -5.921875 4.484375 -6.175781 4.203125 -6.3125 C 3.929688 -6.457031 3.597656 -6.53125 3.203125 -6.53125 Z M 2.609375 -6.53125 "/>
</g>
<g id="glyph-1-0">
<path d="M 7.375 4.75 L 1.671875 4.75 L 1.671875 -14.265625 L 7.375 -14.265625 Z M 2.421875 -13.5625 L 2.421875 4.046875 L 6.640625 4.046875 L 6.640625 -13.5625 Z M 4.40625 -6.125 C 4.945312 -6.125 5.332031 -5.976562 5.5625 -5.6875 C 5.789062 -5.40625 5.90625 -5.03125 5.90625 -4.5625 C 5.90625 -4.082031 5.800781 -3.710938 5.59375 -3.453125 C 5.394531 -3.191406 5.070312 -3.03125 4.625 -2.96875 L 4.625 -2.359375 C 4.625 -2.253906 4.585938 -2.171875 4.515625 -2.109375 C 4.453125 -2.054688 4.375 -2.03125 4.28125 -2.03125 C 4.1875 -2.03125 4.101562 -2.054688 4.03125 -2.109375 C 3.96875 -2.171875 3.9375 -2.253906 3.9375 -2.359375 L 3.9375 -3.5 C 4.414062 -3.519531 4.738281 -3.601562 4.90625 -3.75 C 5.082031 -3.90625 5.171875 -4.171875 5.171875 -4.546875 C 5.171875 -4.835938 5.113281 -5.066406 5 -5.234375 C 4.882812 -5.398438 4.664062 -5.484375 4.34375 -5.484375 C 4.082031 -5.484375 3.847656 -5.429688 3.640625 -5.328125 C 3.566406 -5.296875 3.507812 -5.28125 3.46875 -5.28125 C 3.363281 -5.28125 3.28125 -5.3125 3.21875 -5.375 C 3.164062 -5.4375 3.140625 -5.507812 3.140625 -5.59375 C 3.140625 -5.769531 3.269531 -5.898438 3.53125 -5.984375 C 3.800781 -6.078125 4.09375 -6.125 4.40625 -6.125 Z M 4.28125 -1.625 C 4.414062 -1.625 4.523438 -1.578125 4.609375 -1.484375 C 4.703125 -1.398438 4.75 -1.289062 4.75 -1.15625 C 4.75 -1.007812 4.703125 -0.890625 4.609375 -0.796875 C 4.523438 -0.703125 4.414062 -0.65625 4.28125 -0.65625 C 4.144531 -0.65625 4.03125 -0.703125 3.9375 -0.796875 C 3.851562 -0.890625 3.8125 -1.007812 3.8125 -1.15625 C 3.8125 -1.289062 3.851562 -1.398438 3.9375 -1.484375 C 4.03125 -1.578125 4.144531 -1.625 4.28125 -1.625 Z M 4.28125 -1.625 "/>
</g>
<g id="glyph-1-1">
<path d="M 3.984375 -9.375 C 5.109375 -9.375 5.96875 -8.960938 6.5625 -8.140625 C 7.15625 -7.316406 7.453125 -6.128906 7.453125 -4.578125 C 7.453125 -3.035156 7.15625 -1.847656 6.5625 -1.015625 C 5.96875 -0.179688 5.109375 0.234375 3.984375 0.234375 C 2.859375 0.234375 2 -0.179688 1.40625 -1.015625 C 0.8125 -1.847656 0.515625 -3.035156 0.515625 -4.578125 C 0.515625 -6.128906 0.8125 -7.316406 1.40625 -8.140625 C 2 -8.960938 2.859375 -9.375 3.984375 -9.375 Z M 3.984375 -7.796875 C 3.671875 -7.796875 3.425781 -7.691406 3.25 -7.484375 C 3.070312 -7.285156 2.9375 -6.953125 2.84375 -6.484375 C 2.757812 -6.023438 2.71875 -5.390625 2.71875 -4.578125 C 2.71875 -3.765625 2.757812 -3.125 2.84375 -2.65625 C 2.9375 -2.1875 3.070312 -1.851562 3.25 -1.65625 C 3.425781 -1.457031 3.671875 -1.359375 3.984375 -1.359375 C 4.285156 -1.359375 4.523438 -1.453125 4.703125 -1.640625 C 4.890625 -1.835938 5.023438 -2.171875 5.109375 -2.640625 C 5.203125 -3.109375 5.25 -3.753906 5.25 -4.578125 C 5.25 -5.398438 5.203125 -6.046875 5.109375 -6.515625 C 5.023438 -6.984375 4.890625 -7.3125 4.703125 -7.5 C 4.523438 -7.695312 4.285156 -7.796875 3.984375 -7.796875 Z M 3.984375 -7.796875 "/>
</g>
<g id="glyph-1-2">
<path d="M 5.1875 0 L 3.078125 0 L 3.078125 -7.09375 L 1.109375 -5.890625 L 0.171875 -7.3125 L 3.28125 -9.1875 L 5.1875 -9.1875 Z M 5.1875 0 "/>
</g>
<g id="glyph-1-3">
<path d="M 3.234375 -9.375 C 3.898438 -9.375 4.46875 -9.253906 4.9375 -9.015625 C 5.414062 -8.785156 5.78125 -8.46875 6.03125 -8.0625 C 6.28125 -7.664062 6.40625 -7.226562 6.40625 -6.75 C 6.40625 -6.257812 6.300781 -5.789062 6.09375 -5.34375 C 5.894531 -4.90625 5.539062 -4.398438 5.03125 -3.828125 C 4.53125 -3.253906 3.796875 -2.523438 2.828125 -1.640625 L 6.59375 -1.640625 L 6.375 0 L 0.390625 0 L 0.390625 -1.515625 C 1.503906 -2.617188 2.316406 -3.445312 2.828125 -4 C 3.335938 -4.5625 3.691406 -5.023438 3.890625 -5.390625 C 4.097656 -5.765625 4.203125 -6.144531 4.203125 -6.53125 C 4.203125 -6.90625 4.09375 -7.195312 3.875 -7.40625 C 3.664062 -7.625 3.378906 -7.734375 3.015625 -7.734375 C 2.691406 -7.734375 2.398438 -7.65625 2.140625 -7.5 C 1.890625 -7.351562 1.628906 -7.113281 1.359375 -6.78125 L 0.078125 -7.796875 C 0.460938 -8.285156 0.921875 -8.671875 1.453125 -8.953125 C 1.984375 -9.234375 2.578125 -9.375 3.234375 -9.375 Z M 3.234375 -9.375 "/>
</g>
<g id="glyph-1-4">
<path d="M 3.25 -9.375 C 3.894531 -9.375 4.445312 -9.269531 4.90625 -9.0625 C 5.363281 -8.851562 5.710938 -8.570312 5.953125 -8.21875 C 6.191406 -7.863281 6.3125 -7.472656 6.3125 -7.046875 C 6.3125 -6.492188 6.15625 -6.03125 5.84375 -5.65625 C 5.53125 -5.28125 5.085938 -5.015625 4.515625 -4.859375 C 5.128906 -4.785156 5.628906 -4.5625 6.015625 -4.1875 C 6.410156 -3.8125 6.609375 -3.28125 6.609375 -2.59375 C 6.609375 -2.082031 6.472656 -1.609375 6.203125 -1.171875 C 5.929688 -0.742188 5.53125 -0.398438 5 -0.140625 C 4.46875 0.105469 3.832031 0.234375 3.09375 0.234375 C 1.757812 0.234375 0.710938 -0.226562 -0.046875 -1.15625 L 1.09375 -2.28125 C 1.40625 -1.976562 1.707031 -1.753906 2 -1.609375 C 2.300781 -1.472656 2.628906 -1.40625 2.984375 -1.40625 C 3.398438 -1.40625 3.738281 -1.519531 4 -1.75 C 4.269531 -1.988281 4.40625 -2.316406 4.40625 -2.734375 C 4.40625 -3.203125 4.28125 -3.535156 4.03125 -3.734375 C 3.78125 -3.941406 3.40625 -4.046875 2.90625 -4.046875 L 2.140625 -4.046875 L 2.375 -5.53125 L 2.90625 -5.53125 C 3.3125 -5.53125 3.632812 -5.632812 3.875 -5.84375 C 4.113281 -6.050781 4.234375 -6.347656 4.234375 -6.734375 C 4.234375 -7.066406 4.125 -7.328125 3.90625 -7.515625 C 3.6875 -7.703125 3.382812 -7.796875 3 -7.796875 C 2.351562 -7.796875 1.753906 -7.523438 1.203125 -6.984375 L 0.15625 -8.140625 C 1.019531 -8.960938 2.050781 -9.375 3.25 -9.375 Z M 3.25 -9.375 "/>
</g>
<g id="glyph-1-5">
<path d="M 7.390625 -1.984375 L 6.359375 -1.984375 L 6.359375 0 L 4.265625 0 L 4.25 -1.984375 L 0.375 -1.984375 L 0.375 -3.40625 L 2.984375 -9.421875 L 4.8125 -8.734375 L 2.59375 -3.59375 L 4.28125 -3.59375 L 4.515625 -5.765625 L 6.359375 -5.765625 L 6.359375 -3.59375 L 7.390625 -3.59375 Z M 7.390625 -1.984375 "/>
</g>
<g id="glyph-1-6">
<path d="M 6.171875 -7.65625 L 2.84375 -7.65625 L 2.84375 -5.71875 C 3.269531 -5.914062 3.722656 -6.015625 4.203125 -6.015625 C 4.710938 -6.015625 5.164062 -5.894531 5.5625 -5.65625 C 5.957031 -5.425781 6.269531 -5.082031 6.5 -4.625 C 6.726562 -4.175781 6.84375 -3.644531 6.84375 -3.03125 C 6.84375 -2.382812 6.691406 -1.8125 6.390625 -1.3125 C 6.097656 -0.820312 5.675781 -0.441406 5.125 -0.171875 C 4.582031 0.0976562 3.953125 0.234375 3.234375 0.234375 C 1.992188 0.234375 0.972656 -0.226562 0.171875 -1.15625 L 1.390625 -2.265625 C 1.878906 -1.679688 2.46875 -1.390625 3.15625 -1.390625 C 3.625 -1.390625 3.988281 -1.53125 4.25 -1.8125 C 4.507812 -2.09375 4.640625 -2.492188 4.640625 -3.015625 C 4.640625 -4.035156 4.207031 -4.546875 3.34375 -4.546875 C 3.164062 -4.546875 2.988281 -4.519531 2.8125 -4.46875 C 2.644531 -4.425781 2.457031 -4.347656 2.25 -4.234375 L 0.78125 -4.234375 L 0.78125 -9.1875 L 6.421875 -9.1875 Z M 6.171875 -7.65625 "/>
</g>
<g id="glyph-1-7">
<path d="M 4.6875 -6.1875 C 5.195312 -6.1875 5.648438 -6.066406 6.046875 -5.828125 C 6.441406 -5.585938 6.753906 -5.238281 6.984375 -4.78125 C 7.210938 -4.320312 7.328125 -3.773438 7.328125 -3.140625 C 7.328125 -2.515625 7.191406 -1.945312 6.921875 -1.4375 C 6.648438 -0.925781 6.257812 -0.519531 5.75 -0.21875 C 5.25 0.0820312 4.664062 0.234375 4 0.234375 C 2.820312 0.234375 1.945312 -0.160156 1.375 -0.953125 C 0.800781 -1.742188 0.515625 -2.828125 0.515625 -4.203125 C 0.515625 -5.234375 0.675781 -6.140625 1 -6.921875 C 1.320312 -7.703125 1.785156 -8.304688 2.390625 -8.734375 C 2.992188 -9.160156 3.703125 -9.375 4.515625 -9.375 C 5.304688 -9.375 6.003906 -9.171875 6.609375 -8.765625 L 5.8125 -7.484375 C 5.40625 -7.722656 4.988281 -7.84375 4.5625 -7.84375 C 4.050781 -7.84375 3.632812 -7.625 3.3125 -7.1875 C 3 -6.75 2.8125 -6.128906 2.75 -5.328125 C 3.289062 -5.898438 3.9375 -6.1875 4.6875 -6.1875 Z M 4.03125 -1.3125 C 4.40625 -1.3125 4.6875 -1.46875 4.875 -1.78125 C 5.070312 -2.101562 5.171875 -2.546875 5.171875 -3.109375 C 5.171875 -3.679688 5.082031 -4.085938 4.90625 -4.328125 C 4.726562 -4.578125 4.457031 -4.703125 4.09375 -4.703125 C 3.601562 -4.703125 3.15625 -4.460938 2.75 -3.984375 C 2.757812 -3.015625 2.859375 -2.328125 3.046875 -1.921875 C 3.242188 -1.515625 3.570312 -1.3125 4.03125 -1.3125 Z M 4.03125 -1.3125 "/>
</g>
<g id="glyph-1-8">
<path d="M 6.109375 -7.734375 L 2.75 0.21875 L 0.796875 -0.4375 L 3.890625 -7.578125 L 0.171875 -7.578125 L 0.171875 -9.1875 L 6.109375 -9.1875 Z M 6.109375 -7.734375 "/>
</g>
<g id="glyph-2-0">
<path d="M 9.234375 5.953125 L 2.09375 5.953125 L 2.09375 -17.84375 L 9.234375 -17.84375 Z M 3.03125 -16.96875 L 3.03125 5.0625 L 8.3125 5.0625 L 8.3125 -16.96875 Z M 5.515625 -7.671875 C 6.191406 -7.671875 6.671875 -7.488281 6.953125 -7.125 C 7.242188 -6.757812 7.390625 -6.289062 7.390625 -5.71875 C 7.390625 -5.113281 7.257812 -4.644531 7 -4.3125 C 6.75 -3.988281 6.34375 -3.785156 5.78125 -3.703125 L 5.78125 -2.9375 C 5.78125 -2.8125 5.738281 -2.710938 5.65625 -2.640625 C 5.570312 -2.566406 5.472656 -2.53125 5.359375 -2.53125 C 5.242188 -2.53125 5.144531 -2.566406 5.0625 -2.640625 C 4.976562 -2.710938 4.9375 -2.8125 4.9375 -2.9375 L 4.9375 -4.375 C 5.53125 -4.40625 5.9375 -4.515625 6.15625 -4.703125 C 6.375 -4.890625 6.484375 -5.210938 6.484375 -5.671875 C 6.484375 -6.046875 6.40625 -6.332031 6.25 -6.53125 C 6.101562 -6.738281 5.832031 -6.84375 5.4375 -6.84375 C 5.113281 -6.84375 4.820312 -6.78125 4.5625 -6.65625 C 4.46875 -6.625 4.390625 -6.609375 4.328125 -6.609375 C 4.203125 -6.609375 4.101562 -6.644531 4.03125 -6.71875 C 3.957031 -6.789062 3.921875 -6.882812 3.921875 -7 C 3.921875 -7.21875 4.085938 -7.382812 4.421875 -7.5 C 4.765625 -7.613281 5.128906 -7.671875 5.515625 -7.671875 Z M 5.359375 -2.046875 C 5.523438 -2.046875 5.664062 -1.988281 5.78125 -1.875 C 5.894531 -1.757812 5.953125 -1.613281 5.953125 -1.4375 C 5.953125 -1.257812 5.894531 -1.109375 5.78125 -0.984375 C 5.664062 -0.867188 5.523438 -0.8125 5.359375 -0.8125 C 5.179688 -0.8125 5.035156 -0.867188 4.921875 -0.984375 C 4.816406 -1.109375 4.765625 -1.257812 4.765625 -1.4375 C 4.765625 -1.613281 4.816406 -1.757812 4.921875 -1.875 C 5.035156 -1.988281 5.179688 -2.046875 5.359375 -2.046875 Z M 5.359375 -2.046875 "/>
</g>
<g id="glyph-2-1">
<path d="M 3.890625 -2.203125 L 8.484375 -2.203125 L 8.1875 0 L 1.109375 0 L 1.109375 -11.78125 L 3.890625 -11.78125 Z M 3.890625 -2.203125 "/>
</g>
<g id="glyph-2-2">
<path d="M 8.421875 -0.765625 C 9.148438 -0.765625 9.785156 -0.675781 10.328125 -0.5 C 10.878906 -0.320312 11.40625 -0.0507812 11.90625 0.3125 L 10.21875 2.5 C 9.570312 1.769531 8.90625 1.207031 8.21875 0.8125 C 7.539062 0.425781 6.695312 0.234375 5.6875 0.234375 C 4.632812 0.234375 3.722656 -0.00390625 2.953125 -0.484375 C 2.179688 -0.960938 1.585938 -1.660156 1.171875 -2.578125 C 0.765625 -3.503906 0.5625 -4.613281 0.5625 -5.90625 C 0.5625 -7.164062 0.773438 -8.257812 1.203125 -9.1875 C 1.628906 -10.125 2.238281 -10.835938 3.03125 -11.328125 C 3.820312 -11.816406 4.765625 -12.0625 5.859375 -12.0625 C 7.535156 -12.0625 8.84375 -11.523438 9.78125 -10.453125 C 10.71875 -9.378906 11.1875 -7.863281 11.1875 -5.90625 C 11.1875 -3.5 10.265625 -1.785156 8.421875 -0.765625 Z M 3.484375 -5.90625 C 3.484375 -4.445312 3.679688 -3.390625 4.078125 -2.734375 C 4.472656 -2.078125 5.066406 -1.75 5.859375 -1.75 C 6.679688 -1.75 7.285156 -2.070312 7.671875 -2.71875 C 8.066406 -3.375 8.265625 -4.4375 8.265625 -5.90625 C 8.265625 -7.363281 8.066406 -8.414062 7.671875 -9.0625 C 7.273438 -9.707031 6.671875 -10.03125 5.859375 -10.03125 C 5.054688 -10.03125 4.457031 -9.703125 4.0625 -9.046875 C 3.675781 -8.398438 3.484375 -7.351562 3.484375 -5.90625 Z M 3.484375 -5.90625 "/>
</g>
</g>
<clipPath id="clip-0">
<path clip-rule="nonzero" d="M 38.410156 55 L 354.519531 55 L 354.519531 319.589844 L 38.410156 319.589844 Z M 38.410156 55 "/>
</clipPath>
<clipPath id="clip-1">
<path clip-rule="nonzero" d="M 149 5.480469 L 153 5.480469 L 153 319.589844 L 149 319.589844 Z M 149 5.480469 "/>
</clipPath>
<clipPath id="clip-2">
<path clip-rule="nonzero" d="M 276 5.480469 L 279 5.480469 L 279 319.589844 L 276 319.589844 Z M 276 5.480469 "/>
</clipPath>
<clipPath id="clip-3">
<path clip-rule="nonzero" d="M 38.410156 5.480469 L 151 5.480469 L 151 319.589844 L 38.410156 319.589844 Z M 38.410156 5.480469 "/>
</clipPath>
<clipPath id="clip-4">
<path clip-rule="nonzero" d="M 277 5.480469 L 354.519531 5.480469 L 354.519531 319.589844 L 277 319.589844 Z M 277 5.480469 "/>
</clipPath>
</defs>
<rect x="-36" y="-36" width="432" height="432" fill="rgb(100%, 100%, 100%)" fill-opacity="1"/>
<g clip-path="url(#clip-0)">
<path fill="none" stroke-width="2.133957" stroke-linecap="butt" stroke-linejoin="round" stroke="rgb(41.568627%, 5.098039%, 67.843137%)" stroke-opacity="1" stroke-miterlimit="10" d="M 38.410156 319.589844 L 41.570312 318.394531 L 44.734375 316.988281 L 47.894531 315.375 L 51.054688 313.566406 L 54.214844 311.5625 L 57.378906 309.371094 L 60.539062 307 L 63.699219 304.453125 L 66.859375 301.738281 L 70.023438 298.863281 L 73.183594 295.828125 L 76.34375 292.644531 L 79.503906 289.316406 L 82.667969 285.851562 L 85.828125 282.253906 L 88.988281 278.53125 L 92.148438 274.691406 L 95.3125 270.734375 L 98.472656 266.671875 L 101.632812 262.503906 L 104.792969 258.246094 L 107.953125 253.898438 L 111.117188 249.464844 L 114.277344 244.957031 L 117.4375 240.378906 L 120.597656 235.734375 L 123.761719 231.03125 L 126.921875 226.277344 L 130.082031 221.476562 L 133.242188 216.636719 L 136.40625 211.761719 L 139.566406 206.859375 L 142.726562 201.933594 L 145.886719 196.992188 L 149.050781 192.042969 L 152.210938 187.089844 L 155.371094 182.140625 L 158.53125 177.199219 L 161.695312 172.273438 L 164.855469 167.367188 L 168.015625 162.488281 L 171.175781 157.644531 L 174.339844 152.839844 L 177.5 148.078125 L 180.660156 143.371094 L 183.820312 138.71875 L 186.984375 134.132812 L 190.144531 129.617188 L 193.304688 125.175781 L 196.464844 120.816406 L 199.625 116.546875 L 202.789062 112.371094 L 205.949219 108.296875 L 209.109375 104.328125 L 212.269531 100.472656 L 215.433594 96.734375 L 218.59375 93.125 L 221.753906 89.644531 L 224.914062 86.300781 L 228.078125 83.101562 L 231.238281 80.050781 L 234.398438 77.15625 L 237.558594 74.421875 L 240.722656 71.859375 L 243.882812 69.46875 L 247.042969 67.257812 L 250.203125 65.230469 L 253.367188 63.398438 L 256.527344 61.765625 L 259.6875 60.335938 L 262.847656 59.117188 L 266.011719 58.113281 L 269.171875 57.335938 L 272.332031 56.785156 L 275.492188 56.46875 L 278.652344 56.398438 L 281.816406 56.570312 L 284.976562 56.996094 L 288.136719 57.683594 L 291.296875 58.636719 L 294.460938 59.859375 L 297.621094 61.363281 L 300.78125 63.148438 L 303.941406 65.226562 L 307.105469 67.597656 L 310.265625 70.273438 L 313.425781 73.257812 L 316.585938 76.554688 L 319.75 80.175781 L 322.910156 84.121094 L 326.070312 88.398438 L 329.230469 93.015625 L 332.394531 97.980469 L 335.554688 103.292969 L 338.714844 108.964844 L 341.875 115.003906 L 345.039062 121.40625 L 348.199219 128.1875 L 351.359375 135.351562 L 354.519531 142.902344 "/>
</g>
<g clip-path="url(#clip-1)">
<path fill="none" stroke-width="2.133957" stroke-linecap="butt" stroke-linejoin="round" stroke="rgb(27.843137%, 33.333333%, 41.176471%)" stroke-opacity="1" stroke-dasharray="8.535827 8.535827" stroke-miterlimit="10" d="M 150.945312 319.589844 L 150.945312 5.480469 "/>
</g>
<g clip-path="url(#clip-2)">
<path fill="none" stroke-width="2.133957" stroke-linecap="butt" stroke-linejoin="round" stroke="rgb(27.843137%, 33.333333%, 41.176471%)" stroke-opacity="1" stroke-dasharray="8.535827 8.535827" stroke-miterlimit="10" d="M 277.8125 319.589844 L 277.8125 5.480469 "/>
</g>
<path fill-rule="nonzero" fill="rgb(100%, 100%, 100%)" fill-opacity="1" stroke-width="0.533489" stroke-linecap="round" stroke-linejoin="round" stroke="rgb(41.568627%, 5.098039%, 67.843137%)" stroke-opacity="1" stroke-miterlimit="10" d="M 56.8125 52.5 L 132.542969 52.5 L 132.460938 52.496094 L 132.792969 52.484375 L 133.113281 52.417969 L 133.421875 52.300781 L 133.707031 52.136719 L 133.964844 51.929688 L 134.183594 51.679688 L 134.359375 51.402344 L 134.488281 51.097656 L 134.566406 50.777344 L 134.59375 50.449219 L 134.59375 23.332031 L 134.566406 23 L 134.488281 22.679688 L 134.359375 22.378906 L 134.183594 22.097656 L 133.964844 21.851562 L 133.707031 21.644531 L 133.421875 21.480469 L 133.113281 21.363281 L 132.792969 21.296875 L 132.542969 21.28125 L 56.8125 21.28125 L 57.058594 21.296875 L 56.730469 21.285156 L 56.402344 21.324219 L 56.085938 21.414062 L 55.789062 21.554688 L 55.515625 21.742188 L 55.28125 21.972656 L 55.082031 22.234375 L 54.929688 22.527344 L 54.824219 22.839844 L 54.769531 23.164062 L 54.765625 23.332031 L 54.765625 50.449219 L 54.769531 50.285156 L 54.769531 50.617188 L 54.824219 50.941406 L 54.929688 51.253906 L 55.082031 51.546875 L 55.28125 51.808594 L 55.515625 52.039062 L 55.789062 52.226562 L 56.085938 52.367188 L 56.402344 52.457031 L 56.730469 52.496094 Z M 56.8125 52.5 "/>
<g fill="rgb(41.568627%, 5.098039%, 67.843137%)" fill-opacity="1">
<use xlink:href="#glyph-0-1" x="58.179688" y="32.335938"/>
<use xlink:href="#glyph-0-2" x="61.179688" y="32.335938"/>
<use xlink:href="#glyph-0-3" x="68.179688" y="32.335938"/>
<use xlink:href="#glyph-0-4" x="73.179688" y="32.335938"/>
<use xlink:href="#glyph-0-5" x="77.179688" y="32.335938"/>
<use xlink:href="#glyph-0-6" x="83.179688" y="32.335938"/>
<use xlink:href="#glyph-0-5" x="93.179688" y="32.335938"/>
<use xlink:href="#glyph-0-2" x="99.179688" y="32.335938"/>
<use xlink:href="#glyph-0-7" x="106.179688" y="32.335938"/>
<use xlink:href="#glyph-0-8" x="110.179688" y="32.335938"/>
<use xlink:href="#glyph-0-9" x="117.179688" y="32.335938"/>
<use xlink:href="#glyph-0-10" x="122.179688" y="32.335938"/>
<use xlink:href="#glyph-0-11" x="125.179688" y="32.335938"/>
</g>
<g fill="rgb(41.568627%, 5.098039%, 67.843137%)" fill-opacity="1">
<use xlink:href="#glyph-0-7" x="59.679688" y="48.726562"/>
<use xlink:href="#glyph-0-11" x="63.679688" y="48.726562"/>
<use xlink:href="#glyph-0-9" x="69.679688" y="48.726562"/>
<use xlink:href="#glyph-0-11" x="74.679688" y="48.726562"/>
<use xlink:href="#glyph-0-10" x="80.679688" y="48.726562"/>
<use xlink:href="#glyph-0-3" x="83.679688" y="48.726562"/>
<use xlink:href="#glyph-0-4" x="88.679688" y="48.726562"/>
<use xlink:href="#glyph-0-5" x="92.679688" y="48.726562"/>
<use xlink:href="#glyph-0-3" x="98.679688" y="48.726562"/>
<use xlink:href="#glyph-0-12" x="103.679688" y="48.726562"/>
<use xlink:href="#glyph-0-5" x="106.679688" y="48.726562"/>
<use xlink:href="#glyph-0-2" x="112.679688" y="48.726562"/>
<use xlink:href="#glyph-0-7" x="119.679688" y="48.726562"/>
<use xlink:href="#glyph-0-5" x="123.679688" y="48.726562"/>
</g>
<path fill-rule="nonzero" fill="rgb(100%, 100%, 100%)" fill-opacity="1" stroke-width="0.533489" stroke-linecap="round" stroke-linejoin="round" stroke="rgb(41.568627%, 5.098039%, 67.843137%)" stroke-opacity="1" stroke-miterlimit="10" d="M 176.511719 60.695312 L 252.246094 60.695312 L 252.160156 60.691406 L 252.492188 60.679688 L 252.8125 60.613281 L 253.121094 60.496094 L 253.40625 60.332031 L 253.664062 60.121094 L 253.882812 59.875 L 254.058594 59.597656 L 254.1875 59.292969 L 254.265625 58.972656 L 254.292969 58.644531 L 254.292969 15.136719 L 254.265625 14.808594 L 254.1875 14.488281 L 254.058594 14.183594 L 253.882812 13.90625 L 253.664062 13.660156 L 253.40625 13.449219 L 253.121094 13.285156 L 252.8125 13.167969 L 252.492188 13.101562 L 252.246094 13.085938 L 176.511719 13.085938 L 176.761719 13.101562 L 176.429688 13.089844 L 176.101562 13.128906 L 175.785156 13.21875 L 175.488281 13.363281 L 175.21875 13.550781 L 174.980469 13.777344 L 174.78125 14.039062 L 174.628906 14.332031 L 174.523438 14.644531 L 174.472656 14.972656 L 174.464844 15.136719 L 174.464844 58.644531 L 174.472656 58.480469 L 174.472656 58.808594 L 174.523438 59.136719 L 174.628906 59.449219 L 174.78125 59.738281 L 174.980469 60.003906 L 175.21875 60.230469 L 175.488281 60.417969 L 175.785156 60.558594 L 176.101562 60.652344 L 176.429688 60.691406 Z M 176.511719 60.695312 "/>
<g fill="rgb(41.568627%, 5.098039%, 67.843137%)" fill-opacity="1">
<use xlink:href="#glyph-0-1" x="177.878906" y="24.140625"/>
<use xlink:href="#glyph-0-2" x="180.878906" y="24.140625"/>
<use xlink:href="#glyph-0-3" x="187.878906" y="24.140625"/>
<use xlink:href="#glyph-0-4" x="192.878906" y="24.140625"/>
<use xlink:href="#glyph-0-5" x="196.878906" y="24.140625"/>
<use xlink:href="#glyph-0-6" x="202.878906" y="24.140625"/>
<use xlink:href="#glyph-0-5" x="212.878906" y="24.140625"/>
<use xlink:href="#glyph-0-2" x="218.878906" y="24.140625"/>
<use xlink:href="#glyph-0-7" x="225.878906" y="24.140625"/>
<use xlink:href="#glyph-0-8" x="229.878906" y="24.140625"/>
<use xlink:href="#glyph-0-9" x="236.878906" y="24.140625"/>
<use xlink:href="#glyph-0-10" x="241.878906" y="24.140625"/>
<use xlink:href="#glyph-0-11" x="244.878906" y="24.140625"/>
</g>
<g fill="rgb(41.568627%, 5.098039%, 67.843137%)" fill-opacity="1">
<use xlink:href="#glyph-0-7" x="203.878906" y="40.53125"/>
<use xlink:href="#glyph-0-11" x="207.878906" y="40.53125"/>
<use xlink:href="#glyph-0-9" x="213.878906" y="40.53125"/>
<use xlink:href="#glyph-0-11" x="218.878906" y="40.53125"/>
</g>
<g fill="rgb(41.568627%, 5.098039%, 67.843137%)" fill-opacity="1">
<use xlink:href="#glyph-0-13" x="184.878906" y="56.917969"/>
<use xlink:href="#glyph-0-5" x="191.878906" y="56.917969"/>
<use xlink:href="#glyph-0-3" x="197.878906" y="56.917969"/>
<use xlink:href="#glyph-0-4" x="202.878906" y="56.917969"/>
<use xlink:href="#glyph-0-5" x="206.878906" y="56.917969"/>
<use xlink:href="#glyph-0-3" x="212.878906" y="56.917969"/>
<use xlink:href="#glyph-0-12" x="217.878906" y="56.917969"/>
<use xlink:href="#glyph-0-5" x="220.878906" y="56.917969"/>
<use xlink:href="#glyph-0-2" x="226.878906" y="56.917969"/>
<use xlink:href="#glyph-0-7" x="233.878906" y="56.917969"/>
<use xlink:href="#glyph-0-5" x="237.878906" y="56.917969"/>
</g>
<path fill-rule="nonzero" fill="rgb(100%, 100%, 100%)" fill-opacity="1" stroke-width="0.533489" stroke-linecap="round" stroke-linejoin="round" stroke="rgb(41.568627%, 5.098039%, 67.843137%)" stroke-opacity="1" stroke-miterlimit="10" d="M 283.300781 44.304688 L 349.03125 44.304688 L 348.949219 44.304688 L 349.277344 44.289062 L 349.601562 44.222656 L 349.910156 44.105469 L 350.195312 43.941406 L 350.449219 43.734375 L 350.667969 43.488281 L 350.84375 43.207031 L 350.976562 42.90625 L 351.054688 42.585938 L 351.082031 42.257812 L 351.082031 31.523438 L 351.054688 31.195312 L 350.976562 30.875 L 350.84375 30.574219 L 350.667969 30.292969 L 350.449219 30.046875 L 350.195312 29.839844 L 349.910156 29.675781 L 349.601562 29.558594 L 349.277344 29.492188 L 349.03125 29.476562 L 283.300781 29.476562 L 283.546875 29.492188 L 283.21875 29.476562 L 282.890625 29.515625 L 282.574219 29.609375 L 282.277344 29.75 L 282.003906 29.9375 L 281.765625 30.167969 L 281.570312 30.429688 L 281.414062 30.722656 L 281.3125 31.035156 L 281.257812 31.359375 L 281.25 31.523438 L 281.25 42.257812 L 281.257812 42.089844 L 281.257812 42.421875 L 281.3125 42.746094 L 281.414062 43.058594 L 281.570312 43.351562 L 281.765625 43.613281 L 282.003906 43.84375 L 282.277344 44.03125 L 282.574219 44.171875 L 282.890625 44.261719 L 283.21875 44.304688 Z M 283.300781 44.304688 "/>
<g fill="rgb(41.568627%, 5.098039%, 67.843137%)" fill-opacity="1">
<use xlink:href="#glyph-0-14" x="284.664062" y="40.53125"/>
<use xlink:href="#glyph-0-5" x="291.664062" y="40.53125"/>
<use xlink:href="#glyph-0-3" x="297.664062" y="40.53125"/>
<use xlink:href="#glyph-0-4" x="302.664062" y="40.53125"/>
<use xlink:href="#glyph-0-5" x="306.664062" y="40.53125"/>
<use xlink:href="#glyph-0-3" x="312.664062" y="40.53125"/>
<use xlink:href="#glyph-0-12" x="317.664062" y="40.53125"/>
<use xlink:href="#glyph-0-5" x="320.664062" y="40.53125"/>
<use xlink:href="#glyph-0-2" x="326.664062" y="40.53125"/>
<use xlink:href="#glyph-0-13" x="333.664062" y="40.53125"/>
<use xlink:href="#glyph-0-8" x="340.664062" y="40.53125"/>
</g>
<g clip-path="url(#clip-3)">
<path fill-rule="nonzero" fill="rgb(41.568627%, 5.098039%, 67.843137%)" fill-opacity="0.2" d="M 38.410156 5.480469 L 150.945312 5.480469 L 150.945312 319.589844 L 38.410156 319.589844 Z M 38.410156 5.480469 "/>
</g>
<g clip-path="url(#clip-4)">
<path fill-rule="nonzero" fill="rgb(41.568627%, 5.098039%, 67.843137%)" fill-opacity="0.2" d="M 277.8125 5.480469 L 354.519531 5.480469 L 354.519531 319.589844 L 277.8125 319.589844 Z M 277.8125 5.480469 "/>
</g>
<path fill="none" stroke-width="1.066978" stroke-linecap="butt" stroke-linejoin="round" stroke="rgb(15.294118%, 15.686275%, 13.333333%)" stroke-opacity="1" stroke-miterlimit="10" d="M 38.410156 319.589844 L 38.410156 5.480469 "/>
<g fill="rgb(30.196078%, 30.196078%, 30.196078%)" fill-opacity="1">
<use xlink:href="#glyph-1-1" x="28.21875" y="324.304688"/>
</g>
<g fill="rgb(30.196078%, 30.196078%, 30.196078%)" fill-opacity="1">
<use xlink:href="#glyph-1-2" x="22.21875" y="275.980469"/>
<use xlink:href="#glyph-1-1" x="28.21875" y="275.980469"/>
</g>
<g fill="rgb(30.196078%, 30.196078%, 30.196078%)" fill-opacity="1">
<use xlink:href="#glyph-1-3" x="21.21875" y="227.65625"/>
<use xlink:href="#glyph-1-1" x="28.21875" y="227.65625"/>
</g>
<g fill="rgb(30.196078%, 30.196078%, 30.196078%)" fill-opacity="1">
<use xlink:href="#glyph-1-4" x="21.21875" y="179.332031"/>
<use xlink:href="#glyph-1-1" x="28.21875" y="179.332031"/>
</g>
<g fill="rgb(30.196078%, 30.196078%, 30.196078%)" fill-opacity="1">
<use xlink:href="#glyph-1-5" x="20.21875" y="131.003906"/>
<use xlink:href="#glyph-1-1" x="28.21875" y="131.003906"/>
</g>
<g fill="rgb(30.196078%, 30.196078%, 30.196078%)" fill-opacity="1">
<use xlink:href="#glyph-1-6" x="21.21875" y="82.679688"/>
<use xlink:href="#glyph-1-1" x="28.21875" y="82.679688"/>
</g>
<g fill="rgb(30.196078%, 30.196078%, 30.196078%)" fill-opacity="1">
<use xlink:href="#glyph-1-7" x="20.21875" y="34.355469"/>
<use xlink:href="#glyph-1-1" x="28.21875" y="34.355469"/>
</g>
<path fill="none" stroke-width="1.066978" stroke-linecap="butt" stroke-linejoin="round" stroke="rgb(15.294118%, 15.686275%, 13.333333%)" stroke-opacity="1" stroke-miterlimit="10" d="M 38.410156 319.589844 L 354.519531 319.589844 "/>
<g fill="rgb(30.196078%, 30.196078%, 30.196078%)" fill-opacity="1">
<use xlink:href="#glyph-1-1" x="34.410156" y="331.496094"/>
</g>
<g fill="rgb(30.196078%, 30.196078%, 30.196078%)" fill-opacity="1">
<use xlink:href="#glyph-1-2" x="77.558594" y="331.496094"/>
</g>
<g fill="rgb(30.196078%, 30.196078%, 30.196078%)" fill-opacity="1">
<use xlink:href="#glyph-1-3" x="119.207031" y="331.496094"/>
</g>
<g fill="rgb(30.196078%, 30.196078%, 30.196078%)" fill-opacity="1">
<use xlink:href="#glyph-1-4" x="161.355469" y="331.496094"/>
</g>
<g fill="rgb(30.196078%, 30.196078%, 30.196078%)" fill-opacity="1">
<use xlink:href="#glyph-1-5" x="203.003906" y="331.496094"/>
</g>
<g fill="rgb(30.196078%, 30.196078%, 30.196078%)" fill-opacity="1">
<use xlink:href="#glyph-1-6" x="245.652344" y="331.496094"/>
</g>
<g fill="rgb(30.196078%, 30.196078%, 30.196078%)" fill-opacity="1">
<use xlink:href="#glyph-1-7" x="287.296875" y="331.496094"/>
</g>
<g fill="rgb(30.196078%, 30.196078%, 30.196078%)" fill-opacity="1">
<use xlink:href="#glyph-1-8" x="330.445312" y="331.496094"/>
</g>
<g fill="rgb(15.294118%, 15.686275%, 13.333333%)" fill-opacity="1">
<use xlink:href="#glyph-2-1" x="345.519531" y="350.414062"/>
</g>
<g fill="rgb(15.294118%, 15.686275%, 13.333333%)" fill-opacity="1">
<use xlink:href="#glyph-2-2" x="5.480469" y="17.375"/>
</g>
</svg>
